<?xml version="1.0" encoding="UTF-8"?>
<svg version="1.1" xmlns="http://www.w3.org/2000/svg" width="372" height="366">
<path d="M0 0 C9.5945372 6.33669061 17.32369859 14.47602952 23.375 24.1875 C24.16138983 25.39542465 24.94925884 26.60238707 25.73828125 27.80859375 C55.375 73.58805919 55.375 73.58805919 55.375 94.1875 C59.00418085 90.79223348 61.57895051 87.53334068 64.01171875 83.20703125 C64.33275574 82.641017 64.65379272 82.07500275 64.98455811 81.49183655 C65.66634687 80.28691717 66.34434121 79.07984387 67.01876831 77.87078857 C68.07561572 75.97649133 69.1431545 74.08856622 70.21313477 72.20166016 C73.30911607 66.72910552 76.36671523 61.23829011 79.328125 55.69140625 C85.29140013 44.54010449 91.67989124 32.60223505 104.375 28.1875 C108.42636246 27.30765866 111.65566448 27.25492156 115.35546875 29.26171875 C124.50428128 36.38179673 125.95824696 47.2964916 127.375 58.1875 C127.87205954 63.86724029 127.86071473 69.55306512 127.8125 75.25 C127.80793793 76.4066214 127.80793793 76.4066214 127.80328369 77.58660889 C127.609449 111.23028152 120.77163461 143.60908631 109.375 175.1875 C108.94815918 176.3926123 108.94815918 176.3926123 108.51269531 177.62207031 C103.8610896 190.66546171 97.74105247 202.90504832 91.375 215.1875 C100.23546498 203.39080735 109.01486764 191.59411091 117.05517578 179.21679688 C117.96062873 177.8246169 118.87070825 176.43543829 119.78466797 175.04882812 C128.80443379 161.3428826 136.55344325 147.0867538 143.76220703 132.35205078 C144.20290527 131.45341309 144.64360352 130.55477539 145.09765625 129.62890625 C145.48832275 128.82267822 145.87898926 128.0164502 146.28149414 127.18579102 C147.375 125.1875 147.375 125.1875 149.375 123.1875 C152 122.5625 152 122.5625 154.375 122.1875 C155.62351937 126.46038307 155.10569743 128.71941863 153.3125 132.75 C152.84457031 133.80445313 152.37664062 134.85890625 151.89453125 135.9453125 C149.48756398 141.08100102 146.99359898 146.15628623 144.375 151.1875 C143.81466064 152.26475342 143.25432129 153.34200684 142.67700195 154.4519043 C137.59115893 164.06416889 131.87099238 173.14900187 125.76318359 182.13818359 C123.93263338 184.84054703 122.15866778 187.57903847 120.375 190.3125 C115.4168792 197.7129932 110.16110773 204.90440869 104.90429688 212.09423828 C103.56110609 213.93276283 102.22524102 215.77634558 100.890625 217.62109375 C96.35500255 223.80530237 91.52655697 229.46212053 86.24609375 235.0078125 C84.15788296 236.96165306 84.15788296 236.96165306 84.375 239.1875 C101.74551018 230.31449061 118.59931108 221.41360012 134.28076172 209.72119141 C144.56793219 202.1875 144.56793219 202.1875 147.375 202.1875 C147.57867187 201.64738281 147.78234375 201.10726562 147.9921875 200.55078125 C149.93301016 197.23383857 152.66437478 194.91011928 155.5 192.375 C156.37688477 191.57932617 156.37688477 191.57932617 157.27148438 190.76757812 C158.96639536 189.2337305 160.66887555 187.70885503 162.375 186.1875 C163.18710937 185.46175781 163.99921875 184.73601562 164.8359375 183.98828125 C167.61056659 181.53789042 170.40307398 179.16539921 173.3125 176.875 C175.46480875 175.34876242 175.46480875 175.34876242 176.375 173.1875 C182.80357143 171.90178571 182.80357143 171.90178571 185.375 173.1875 C184.096903 180.48397779 177.08567793 185.62052633 171.69140625 190.19140625 C168.24305224 193.1629221 164.91943353 196.26784213 161.5871582 199.3684082 C154.20986372 206.1875 154.20986372 206.1875 151.375 206.1875 C151.12459961 206.78731689 150.87419922 207.38713379 150.61621094 208.00512695 C149.19180578 210.50960329 147.89752278 211.51028061 145.515625 213.10546875 C144.72800781 213.63849609 143.94039063 214.17152344 143.12890625 214.72070312 C142.30261719 215.26662109 141.47632813 215.81253906 140.625 216.375 C139.84511719 216.90158203 139.06523437 217.42816406 138.26171875 217.97070312 C135.64490628 219.72854585 133.01145857 221.45926804 130.375 223.1875 C128.77410522 224.25000977 128.77410522 224.25000977 127.14086914 225.33398438 C118.77986599 230.83900611 110.18035248 235.67778146 101.3125 240.3125 C100.04070447 240.9824826 98.76921958 241.6530552 97.49804688 242.32421875 C95.61887604 243.31621475 93.73933987 244.30745069 91.85797119 245.29527283 C86.57651621 248.06949563 81.33260378 250.90940966 76.09643555 253.76831055 C73.83699206 254.94657779 71.62040928 255.9521642 69.25 256.875 C66.31512869 257.91063583 66.31512869 257.91063583 65.08203125 260.12109375 C62.78301873 262.90410891 60.59252748 263.4368051 57.1875 264.5625 C52.13986306 266.3807648 48.4945937 268.35441514 44.375 271.71875 C39.50445158 275.295559 33.57244018 277.32774205 27.98046875 279.515625 C13.80384282 285.20503166 3.48049993 293.76732964 -5.6875 305.921875 C-7.625 308.1875 -7.625 308.1875 -10.625 309.1875 C-11.285 308.5275 -11.945 307.8675 -12.625 307.1875 C-12.33434593 300.97197457 -10.43949314 296.0191913 -6.625 291.1875 C-22.99057495 300.51115688 -38.11824457 312.0218282 -53.35205078 323.05981445 C-56.41335641 325.2753088 -59.47949431 327.48403498 -62.54736328 329.69042969 C-63.83434877 330.61778515 -65.11954382 331.54763771 -66.40185547 332.48144531 C-75.68962885 339.23872591 -85.44786359 344.88569896 -95.625 350.1875 C-96.57503906 350.68894531 -97.52507812 351.19039063 -98.50390625 351.70703125 C-106.27847392 355.33174731 -114.79918151 355.67799172 -122.9765625 353.15234375 C-131.01241583 349.5730989 -134.77876558 344.87996883 -138.625 337.1875 C-138.74827929 335.08601818 -138.80058006 332.98006093 -138.8125 330.875 C-138.82667969 329.74449219 -138.84085938 328.61398437 -138.85546875 327.44921875 C-138.62980137 324.25545157 -137.98842654 322.0598571 -136.625 319.1875 C-137.45515625 319.09597656 -138.2853125 319.00445312 -139.140625 318.91015625 C-143.28073891 318.05150034 -146.62485444 316.53058365 -150.375 314.625 C-151.07802246 314.26929932 -151.78104492 313.91359863 -152.50537109 313.54711914 C-163.0995242 308.02147927 -172.87261546 300.44314759 -177.625 289.1875 C-179.80564906 281.86783882 -179.24689055 274.91386817 -175.625 268.1875 C-168.78749973 256.03194396 -156.29749076 250.57413142 -143.625 246.1875 C-144.553125 244.640625 -144.553125 244.640625 -145.5 243.0625 C-149.2481206 236.43018731 -150.89699834 230.24329086 -149.0078125 222.734375 C-145.78241491 213.42924567 -140.0182766 208.1875847 -131.375 203.75 C-126.56007432 201.46103922 -122.59285055 200.06278996 -117.25390625 200.0546875 C-116.43212891 200.05339844 -115.61035156 200.05210937 -114.76367188 200.05078125 C-113.91353516 200.05464844 -113.06339844 200.05851563 -112.1875 200.0625 C-110.9180957 200.05669922 -110.9180957 200.05669922 -109.62304688 200.05078125 C-105.49554048 200.05724563 -101.64959894 200.146228 -97.625 201.1875 C-98.06743867 197.57425085 -98.61066429 194.23388022 -99.6875 190.75 C-102.57101577 179.79264007 -99.12754695 168.56035978 -93.55078125 158.984375 C-88.08814965 151.05081673 -81.30653692 144.22949266 -73.5 138.58984375 C-71.58371025 137.23470734 -71.58371025 137.23470734 -70 135.50390625 C-68.625 134.1875 -68.625 134.1875 -66.625 134.1875 C-66.35945313 133.59453125 -66.09390625 133.0015625 -65.8203125 132.390625 C-64.59395485 130.13027953 -63.31423541 128.7432971 -61.5 126.9375 C-49.25173016 113.20614112 -44.28345196 92.96195311 -42.58984375 75.0859375 C-42.50626114 74.24640533 -42.42267853 73.40687317 -42.33656311 72.54190063 C-42.16181544 70.77574599 -41.98968404 69.00933067 -41.82006836 67.24267578 C-41.56509865 64.58954078 -41.30183461 61.93733376 -41.03710938 59.28515625 C-40.27077508 51.50871477 -39.57527196 43.75218007 -39.1484375 35.94921875 C-38.8095647 30.54923481 -38.08622347 25.73052015 -36.3125 20.625 C-36.11205078 19.97982422 -35.91160156 19.33464844 -35.70507812 18.66992188 C-34.28388488 14.33594247 -32.28222329 10.87453072 -29.625 7.1875 C-29.026875 6.32125 -28.42875 5.455 -27.8125 4.5625 C-20.71674562 -3.1414619 -9.49334778 -4.74667389 0 0 Z M-18.625 7.1875 C-17.635 8.6725 -17.635 8.6725 -16.625 10.1875 C-15.965 10.1875 -15.305 10.1875 -14.625 10.1875 C-14.625 9.1975 -14.625 8.2075 -14.625 7.1875 C-15.945 7.1875 -17.265 7.1875 -18.625 7.1875 Z M-10.625 11.1875 C-12.42836045 13.83950066 -12.62287633 15.30217839 -12.5625 18.5625 C-11.37141656 23.16802262 -10.05591056 24.91253992 -6.625 28.1875 C-4.15584814 29.49991113 -4.15584814 29.49991113 -1.625 29.1875 C0.95296475 27.32563657 2.12018846 25.81603513 3.3125 22.875 C3.40129096 19.05698882 2.14193051 16.53204704 0.375 13.1875 C-2.71388522 11.12824319 -3.33435927 10.9484626 -6.8125 11.0625 C-8.070625 11.10375 -9.32875 11.145 -10.625 11.1875 Z M-23.625 12.1875 C-23.295 13.5075 -22.965 14.8275 -22.625 16.1875 C-21.635 15.8575 -20.645 15.5275 -19.625 15.1875 C-20.285 14.1975 -20.945 13.2075 -21.625 12.1875 C-22.285 12.1875 -22.945 12.1875 -23.625 12.1875 Z M-23.625 22.1875 C-24.31659401 24.03475052 -24.31659401 24.03475052 -24.625 26.1875 C-23.635 27.6725 -23.635 27.6725 -22.625 29.1875 C-19.54134129 29.4377157 -19.54134129 29.4377157 -16.625 29.1875 C-16.295 27.5375 -15.965 25.8875 -15.625 24.1875 C-18.85291555 22.0355563 -19.90900809 21.98663557 -23.625 22.1875 Z M-14.625 32.1875 C-15.88176839 33.23453565 -15.88176839 33.23453565 -15.875 35.5625 C-15.83971626 38.19101833 -15.83971626 38.19101833 -14.375 40 C-12.42582707 41.56183428 -12.42582707 41.56183428 -8.625 41.1875 C-7.69368215 38.13955066 -7.32742238 36.76699326 -8.8125 33.875 C-10.70018738 31.73322098 -10.70018738 31.73322098 -14.625 32.1875 Z M0.63671875 33.9453125 C-1.68076042 38.06368105 -0.75119748 41.74046382 0.375 46.1875 C2.16904377 50.58213171 4.25860987 54.816355 6.3515625 59.07324219 C14.74604058 76.41488822 22.62155736 96.05241979 22.4375 115.5625 C22.42847656 116.80773437 22.41945313 118.05296875 22.41015625 119.3359375 C22.39855469 120.27695313 22.38695312 121.21796875 22.375 122.1875 C22.23513672 121.63513672 22.09527344 121.08277344 21.95117188 120.51367188 C16.52252781 96.86217622 16.52252781 96.86217622 1.375 79.1875 C-1.7974011 78.43505499 -1.7974011 78.43505499 -4.625 79.1875 C-12.33264727 85.4742931 -13.86681994 99.53222247 -15.1015625 108.7421875 C-16.31665374 121.65606415 -13.40853675 131.29656321 -8.625 143.1875 C-8.0241537 144.80610635 -7.43843113 146.4304926 -6.875 148.0625 C-6.65328125 148.69929688 -6.4315625 149.33609375 -6.203125 149.9921875 C-5.40480012 153.02366439 -5.02907011 156.08214635 -4.625 159.1875 C-5.0375 158.23230469 -5.45 157.27710938 -5.875 156.29296875 C-11.81386319 141.52176253 -11.81386319 141.52176253 -23.25 131.6875 C-27.52858271 132.32136411 -29.95326089 133.89858103 -32.625 137.1875 C-35.86114011 143.10182502 -37.21043416 148.80499151 -36.0625 155.4375 C-34.23020123 160.93439631 -31.29933374 166.06589859 -28.625 171.1875 C-29.01171875 170.58421875 -29.3984375 169.9809375 -29.796875 169.359375 C-34.21463426 161.97979526 -34.21463426 161.97979526 -41.0625 157.25 C-45.12630568 157.15088279 -47.16012263 158.85473358 -50.09765625 161.52734375 C-56.1076112 167.81397182 -59.80652688 176.11549932 -60.25 184.8125 C-59.82715463 193.18483826 -55.40575848 200.29952799 -49.625 206.1875 C-47.39335767 207.98215356 -45.04084071 209.52809781 -42.625 211.0625 C-41.96274414 211.4946582 -41.30048828 211.92681641 -40.61816406 212.37207031 C-36.58974226 214.98504856 -32.49711187 217.4748024 -28.375 219.9375 C-22.66002645 223.4060439 -17.30442447 227.26682925 -11.9375 231.25 C-10.69601196 232.17111572 -10.69601196 232.17111572 -9.42944336 233.11083984 C-6.19439234 235.51721585 -2.96501307 237.93018032 0.25 240.36328125 C5.18610135 243.99031518 10.37208205 246.8969538 15.8125 249.6875 C16.51205811 250.05085449 17.21161621 250.41420898 17.93237305 250.78857422 C21.98998637 252.94938239 21.98998637 252.94938239 26.375 252.1875 C25.25700014 250.84829162 24.13038103 249.51627444 23 248.1875 C22.06027344 247.07375 22.06027344 247.07375 21.1015625 245.9375 C20.53179687 245.36 19.96203125 244.7825 19.375 244.1875 C18.715 244.1875 18.055 244.1875 17.375 244.1875 C17.106875 243.60484375 16.83875 243.0221875 16.5625 242.421875 C15.36019009 240.15963399 14.03674087 238.38173682 12.375 236.4375 C11.6015625 235.51710937 11.6015625 235.51710937 10.8125 234.578125 C9.46876748 232.95573624 9.46876748 232.95573624 7.375 233.1875 C7.16875 232.66285156 6.9625 232.13820312 6.75 231.59765625 C4.77948678 228.14366007 2.1093654 225.49156938 -0.625 222.625 C-1.71021148 221.47964118 -2.79361465 220.33256568 -3.875 219.18359375 C-4.35453125 218.68013428 -4.8340625 218.1766748 -5.328125 217.65795898 C-6.625 216.1875 -6.625 216.1875 -8.625 213.1875 C-9.285 213.1875 -9.945 213.1875 -10.625 213.1875 C-10.96917969 212.36378906 -10.96917969 212.36378906 -11.3203125 211.5234375 C-12.99704976 208.52137497 -15.14092631 206.31157806 -17.5 203.8125 C-20.99714729 200.1065678 -23.90752007 196.47227068 -26.625 192.1875 C-23.75909251 195.02837268 -20.89672303 197.87276136 -18.03735352 200.72021484 C-17.06757727 201.68501459 -16.0968993 202.64890895 -15.12524414 203.61181641 C-9.95575772 208.73597984 -4.90887638 213.88851712 -0.17407227 219.41796875 C2.21136642 222.1428954 4.78332781 224.66068404 7.375 227.1875 C11.92735996 231.68396371 16.25295086 236.28928893 20.375 241.1875 C21.52016844 242.52140444 22.66597349 243.85476268 23.8125 245.1875 C24.658125 246.1775 25.50375 247.1675 26.375 248.1875 C27.75199717 244.05650849 26.19135453 241.50615339 24.5625 237.6875 C24.24700195 236.93702393 23.93150391 236.18654785 23.60644531 235.41333008 C19.72531317 226.39370574 15.07428003 217.80004151 10.375 209.1875 C9.4163253 207.41034036 8.45799769 205.63299344 7.5 203.85546875 C6.54259787 202.09064035 5.5842879 200.32630409 4.625 198.5625 C4.18961914 197.75772217 3.75423828 196.95294434 3.30566406 196.1237793 C0.67058998 191.32289773 -2.16998053 186.74194417 -5.26513672 182.22338867 C-7.21927615 179.29779286 -8.92247651 176.26513861 -10.625 173.1875 C-5.14244657 180.42297868 0.25439002 187.68946396 5.375 195.1875 C6.11234375 196.26128906 6.8496875 197.33507812 7.609375 198.44140625 C16.55545767 211.59261843 24.7300085 225.24233386 32.375 239.1875 C33.82095222 235.26559375 32.99654485 232.04384706 32.22265625 228.01171875 C32.08742554 227.3015863 31.95219482 226.59145386 31.81286621 225.85980225 C31.36456946 223.52942881 30.90193196 221.20220766 30.4375 218.875 C30.2821579 218.0815921 30.1268158 217.2881842 29.96676636 216.47073364 C27.4021131 203.40221409 24.34176413 190.50376122 20.86547852 177.64916992 C20.53990967 176.44365479 20.21434082 175.23813965 19.87890625 173.99609375 C19.58830322 172.94220459 19.2977002 171.88831543 18.99829102 170.80249023 C18.375 168.1875 18.375 168.1875 18.375 165.1875 C22.73112414 178.6075488 26.87279139 192.06478263 30.66650391 205.65478516 C31.37925833 208.20272259 32.10093327 210.74800284 32.82421875 213.29296875 C33.27896868 214.90355471 33.73340996 216.51422786 34.1875 218.125 C34.39455566 218.85235352 34.60161133 219.57970703 34.81494141 220.32910156 C35.91431928 224.26166976 36.78685296 228.14636064 37.375 232.1875 C37.705 232.1875 38.035 232.1875 38.375 232.1875 C39.22468251 226.06121773 39.6679586 219.9898586 39.9375 213.8125 C39.98068359 212.95011719 40.02386719 212.08773437 40.06835938 211.19921875 C40.82316709 194.49760042 40.28442331 177.76642161 39.875 161.0625 C39.82662886 159.02474418 39.77845072 156.98698377 39.73046875 154.94921875 C39.61419522 150.02859028 39.4953408 145.10803061 39.375 140.1875 C42.12217781 170.86654613 44.09008423 201.38221074 44.375 232.1875 C44.705 232.1875 45.035 232.1875 45.375 232.1875 C47.30943977 220.41320992 48.81046286 208.69257321 49.72802734 196.79272461 C49.79973145 195.87241455 49.87143555 194.95210449 49.9453125 194.00390625 C50.00477051 193.19381104 50.06422852 192.38371582 50.12548828 191.54907227 C50.38935336 189.05164871 50.84698375 186.64149501 51.375 184.1875 C51.62984846 201.60214488 51.28215349 219.15797912 49.03564453 236.44262695 C48.48367002 240.72225545 48.29095949 244.87342073 48.375 249.1875 C61.20067341 233.73839339 60.77954075 205.81885737 60.6875 186.625 C60.68600952 185.84746368 60.68451904 185.06992737 60.6829834 184.26882935 C60.63667714 170.73893474 59.74226416 157.52957259 57.375 144.1875 C57.23046387 143.36620605 57.08592773 142.54491211 56.93701172 141.69873047 C55.92664477 136.150104 54.71091121 130.66618683 53.375 125.1875 C53.17567871 124.36169434 52.97635742 123.53588867 52.77099609 122.68505859 C47.51864051 101.32386187 40.61459633 79.71417207 30.375 60.1875 C29.98812012 59.44790039 29.60124023 58.70830078 29.20263672 57.94628906 C27.92224208 55.5175297 26.6223637 53.10048398 25.3125 50.6875 C24.71308594 49.5735083 24.71308594 49.5735083 24.1015625 48.43701172 C20.86800712 42.62424828 16.50069272 35.25034636 10.375 32.1875 C6.69749669 31.58831412 3.42905611 31.12160056 0.63671875 33.9453125 Z M-28.625 33.1875 C-28.295 34.5075 -27.965 35.8275 -27.625 37.1875 C-26.635 36.8575 -25.645 36.5275 -24.625 36.1875 C-24.625 35.5275 -24.625 34.8675 -24.625 34.1875 C-25.945 33.8575 -27.265 33.5275 -28.625 33.1875 Z M106.375 34.1875 C106.375 35.1775 106.375 36.1675 106.375 37.1875 C107.035 37.1875 107.695 37.1875 108.375 37.1875 C108.045 36.1975 107.715 35.2075 107.375 34.1875 C107.045 34.1875 106.715 34.1875 106.375 34.1875 Z M100.375 37.1875 C100.375 38.1775 100.375 39.1675 100.375 40.1875 C101.035 40.1875 101.695 40.1875 102.375 40.1875 C102.375 39.1975 102.375 38.2075 102.375 37.1875 C101.715 37.1875 101.055 37.1875 100.375 37.1875 Z M107.6875 41.1875 C105.73242432 44.16666294 105.55471818 46.6530424 105.375 50.1875 C106.20669965 53.52249305 106.20669965 53.52249305 107.375 56.1875 C109.78377257 56.07408466 109.78377257 56.07408466 112.375 55.1875 C114.44657657 52.45005954 116.15829876 49.65471988 116.375 46.1875 C115.09404243 43.28849075 114.24550914 41.62275457 111.375 40.1875 C109.33483979 40.01756587 109.33483979 40.01756587 107.6875 41.1875 Z M-22.625 41.1875 C-22.625 42.1775 -22.625 43.1675 -22.625 44.1875 C-21.305 43.8575 -19.985 43.5275 -18.625 43.1875 C-18.955 42.5275 -19.285 41.8675 -19.625 41.1875 C-20.615 41.1875 -21.605 41.1875 -22.625 41.1875 Z M96.375 45.1875 C96.375 47.1675 96.375 49.1475 96.375 51.1875 C98.025 50.8575 99.675 50.5275 101.375 50.1875 C101.045 48.8675 100.715 47.5475 100.375 46.1875 C99.055 45.8575 97.735 45.5275 96.375 45.1875 Z M-28.625 48.1875 C-28.955 49.1775 -29.285 50.1675 -29.625 51.1875 C-28.25331762 53.37788423 -28.25331762 53.37788423 -26.625 55.1875 C-24.975 54.8575 -23.325 54.5275 -21.625 54.1875 C-22.00404208 50.89674004 -22.00404208 50.89674004 -23.625 48.1875 C-25.29117115 48.14686168 -26.95888095 48.144779 -28.625 48.1875 Z M-13.625 50.1875 C-14.285 50.8475 -14.945 51.5075 -15.625 52.1875 C-15.43815164 55.61305325 -15.21294945 58.24678088 -13.375 61.1875 C-11.5671583 62.45002612 -11.5671583 62.45002612 -8.9375 61.875 C-8.174375 61.648125 -7.41125 61.42125 -6.625 61.1875 C-5.77112895 57.88182511 -5.77112895 57.88182511 -5.625 54.1875 C-7.16785631 51.64418762 -7.16785631 51.64418762 -9.625 50.1875 C-10.945 50.1875 -12.265 50.1875 -13.625 50.1875 Z M89.375 52.1875 C89.705 53.1775 90.035 54.1675 90.375 55.1875 C91.035 54.5275 91.695 53.8675 92.375 53.1875 C91.385 52.8575 90.395 52.5275 89.375 52.1875 Z M98.375 56.1875 C97.07866379 57.25395115 97.07866379 57.25395115 97.3125 59.75 C97.333125 60.554375 97.35375 61.35875 97.375 62.1875 C98.695 62.1875 100.015 62.1875 101.375 62.1875 C101.705 60.5375 102.035 58.8875 102.375 57.1875 C100.42896726 56.59679986 100.42896726 56.59679986 98.375 56.1875 Z M-25.625 60.1875 C-25.625 61.5075 -25.625 62.8275 -25.625 64.1875 C-24.305 63.8575 -22.985 63.5275 -21.625 63.1875 C-22.285 62.1975 -22.945 61.2075 -23.625 60.1875 C-24.285 60.1875 -24.945 60.1875 -25.625 60.1875 Z M90.375 60.1875 C90.375 60.8475 90.375 61.5075 90.375 62.1875 C91.365 62.1875 92.355 62.1875 93.375 62.1875 C93.375 61.5275 93.375 60.8675 93.375 60.1875 C92.385 60.1875 91.395 60.1875 90.375 60.1875 Z M106.375 63.1875 C103.71626497 70.34247418 103.24529686 77.94434565 103 85.5 C102.35964584 102.94012179 98.30957384 120.19746892 91.375 136.1875 C91.49617188 135.56746094 91.61734375 134.94742188 91.7421875 134.30859375 C96.41914476 114.43229523 96.41914476 114.43229523 92.375 95.1875 C88.14774235 95.40507944 85.96139543 95.66567788 82.75 98.5234375 C81.96625 99.52632812 81.1825 100.52921875 80.375 101.5625 C79.95275146 102.09979736 79.53050293 102.63709473 79.09545898 103.19067383 C71.50328176 113.01253998 63.9779204 123.17855632 65.375 136.1875 C65.6785745 137.96968125 65.99642625 139.74945748 66.32421875 141.52734375 C67.53270897 148.63811535 68.04202455 155.74503307 68.5 162.9375 C68.58636719 164.21882813 68.67273438 165.50015625 68.76171875 166.8203125 C68.9714111 169.94239856 69.17574265 173.06473361 69.375 176.1875 C70.58128008 173.85535852 71.5404738 171.69107861 72.375 169.1875 C72.17003906 170.28707031 71.96507812 171.38664062 71.75390625 172.51953125 C69.364094 185.53729176 68.20065754 197.91810131 68.375 211.1875 C71.2597182 207.80120883 73.29751708 204.61105316 75.1015625 200.55078125 C75.61364258 199.40818848 76.12572266 198.2655957 76.65332031 197.08837891 C76.92857544 196.46465393 77.20383057 195.84092896 77.48742676 195.19830322 C78.43620963 193.04882916 79.3946412 190.90383062 80.35449219 188.75927734 C82.4959229 183.96876049 84.62354808 179.17217996 86.75 174.375 C87.49340192 172.69983089 88.23689095 171.02470043 88.98046875 169.34960938 C90.77964778 165.29601669 92.57765606 161.24190667 94.375 157.1875 C88.52112965 173.10781989 82.44534415 188.88437877 75.5078125 204.3671875 C75.22059326 205.0154248 74.93337402 205.66366211 74.63745117 206.33154297 C73.869934 208.05828626 73.08976634 209.77939128 72.30859375 211.5 C71.05210413 214.23552147 71.05210413 214.23552147 72.375 217.1875 C73.35339844 215.52074219 73.35339844 215.52074219 74.3515625 213.8203125 C75.2343508 212.31769412 76.11716469 210.81509076 77 209.3125 C77.42667969 208.58546875 77.85335938 207.8584375 78.29296875 207.109375 C81.62002228 201.44841825 84.98891038 195.81332383 88.375 190.1875 C81.91137657 204.12121782 75.18214977 217.76611245 67.38989258 231.01196289 C66.86419678 231.91293701 66.33850098 232.81391113 65.796875 233.7421875 C65.32862305 234.53093262 64.86037109 235.31967773 64.37792969 236.13232422 C63.15571667 238.25571012 63.15571667 238.25571012 63.375 241.1875 C68.7376922 235.47489163 72.96153021 229.45018851 77 222.75 C77.5465625 221.85990234 78.093125 220.96980469 78.65625 220.05273438 C103.91445843 178.69090741 127.89975124 115.67407075 117.375 66.1875 C116.05744485 63.17594537 115.35526641 61.69344395 112.4375 60.1875 C109.48426565 60.1875 108.49923193 61.16822025 106.375 63.1875 Z M84.375 63.1875 C83.07866379 64.25395115 83.07866379 64.25395115 83.3125 66.75 C83.333125 67.554375 83.35375 68.35875 83.375 69.1875 C84.695 69.5175 86.015 69.8475 87.375 70.1875 C87.705 68.5375 88.035 66.8875 88.375 65.1875 C87.055 64.5275 85.735 63.8675 84.375 63.1875 Z M-17.625 67.1875 C-18.40782648 68.97949472 -18.40782648 68.97949472 -18.625 71.1875 C-17.2733633 73.43505753 -17.2733633 73.43505753 -15.625 75.1875 C-13.975 74.8575 -12.325 74.5275 -10.625 74.1875 C-10.45812552 71.77104218 -10.45812552 71.77104218 -10.625 69.1875 C-12.46383881 66.90021266 -12.46383881 66.90021266 -15.25 67.0625 C-16.425625 67.124375 -16.425625 67.124375 -17.625 67.1875 Z M92.375 70.1875 C90.05016215 72.07125675 90.05016215 72.07125675 90.1875 75.1875 C90.17420391 78.11136603 90.17420391 78.11136603 91.375 80.1875 C93.025 79.5275 94.675 78.8675 96.375 78.1875 C96.375 75.5475 96.375 72.9075 96.375 70.1875 C95.055 70.1875 93.735 70.1875 92.375 70.1875 Z M-33.625 71.1875 C-33.295 72.5075 -32.965 73.8275 -32.625 75.1875 C-31.635 74.8575 -30.645 74.5275 -29.625 74.1875 C-30.285 73.1975 -30.945 72.2075 -31.625 71.1875 C-32.285 71.1875 -32.945 71.1875 -33.625 71.1875 Z M82.375 74.1875 C83.375 77.1875 83.375 77.1875 83.375 77.1875 Z M-27.625 79.1875 C-27.24731709 83.56249134 -27.24731709 83.56249134 -24.875 87.125 C-22.64387054 88.38423943 -22.64387054 88.38423943 -20 88.125 C-17.47447882 87.39692333 -17.47447882 87.39692333 -16.3125 85.125 C-16.085625 84.485625 -15.85875 83.84625 -15.625 83.1875 C-18.7983694 79.35578119 -18.7983694 79.35578119 -23.3125 77.8125 C-25.64364219 78.07253985 -25.64364219 78.07253985 -27.625 79.1875 Z M72.375 80.1875 C72.705 81.1775 73.035 82.1675 73.375 83.1875 C74.035 82.5275 74.695 81.8675 75.375 81.1875 C74.385 80.8575 73.395 80.5275 72.375 80.1875 Z M85.375 81.1875 C84.715 81.8475 84.055 82.5075 83.375 83.1875 C83.69541397 85.79030568 83.69541397 85.79030568 84.375 88.1875 C85.365 88.1875 86.355 88.1875 87.375 88.1875 C88.37717064 84.60422247 88.37717064 84.60422247 87.375 81.1875 C86.715 81.1875 86.055 81.1875 85.375 81.1875 Z M-34.625 87.1875 C-35.30458603 89.58469432 -35.30458603 89.58469432 -35.625 92.1875 C-34.965 92.8475 -34.305 93.5075 -33.625 94.1875 C-31.02219432 93.86708603 -31.02219432 93.86708603 -28.625 93.1875 C-28.955 91.5375 -29.285 89.8875 -29.625 88.1875 C-31.275 87.8575 -32.925 87.5275 -34.625 87.1875 Z M73.375 88.1875 C73.20818891 91.10402174 73.20818891 91.10402174 73.375 94.1875 C74.035 94.8475 74.695 95.5075 75.375 96.1875 C76.695 96.1875 78.015 96.1875 79.375 96.1875 C80.05301034 93.28676819 80.05301034 93.28676819 80.375 90.1875 C78.53616119 87.90021266 78.53616119 87.90021266 75.75 88.0625 C74.574375 88.124375 74.574375 88.124375 73.375 88.1875 Z M66.375 91.1875 C65.715 92.8375 65.055 94.4875 64.375 96.1875 C66.355 97.1775 66.355 97.1775 68.375 98.1875 C68.705 96.5375 69.035 94.8875 69.375 93.1875 C68.385 92.5275 67.395 91.8675 66.375 91.1875 Z M-24.625 93.1875 C-26.04077477 94.37174326 -26.04077477 94.37174326 -25.6875 97.75 C-25.666875 98.884375 -25.64625 100.01875 -25.625 101.1875 C-22.655 101.6825 -22.655 101.6825 -19.625 102.1875 C-18.965 100.8675 -18.305 99.5475 -17.625 98.1875 C-19.42357668 95.6265706 -19.42357668 95.6265706 -21.625 93.1875 C-22.615 93.1875 -23.605 93.1875 -24.625 93.1875 Z M70.375 99.1875 C68.00519987 102.14127498 68.00519987 102.14127498 68.375 106.1875 C70.025 105.8575 71.675 105.5275 73.375 105.1875 C73.045 103.2075 72.715 101.2275 72.375 99.1875 C71.715 99.1875 71.055 99.1875 70.375 99.1875 Z M-36.8125 105.25 C-39.08898727 108.93947936 -39.23508934 110.91687462 -38.625 115.1875 C-37.28384601 118.19729883 -37.28384601 118.19729883 -34.625 120.1875 C-31.21307649 121.15848218 -27.90618627 121.82809314 -24.625 120.1875 C-23.41255307 114.70871044 -23.41255307 114.70871044 -24.75 109.4375 C-26.84895828 106.91875006 -28.90610147 105.0227565 -31.625 103.1875 C-34.76228919 102.84449357 -34.76228919 102.84449357 -36.8125 105.25 Z M60.375 104.1875 C59.16434835 107.81945496 59.74715185 109.25281629 60.8125 112.875 C61.09996094 113.86886719 61.38742188 114.86273438 61.68359375 115.88671875 C62.02583984 117.02560547 62.02583984 117.02560547 62.375 118.1875 C65.13181059 114.95421847 65.13181059 114.95421847 65.1875 110.625 C64.56332556 107.0925193 64.56332556 107.0925193 62.375 104.1875 C61.715 104.1875 61.055 104.1875 60.375 104.1875 Z M-45.625 116.1875 C-45.625 117.1775 -45.625 118.1675 -45.625 119.1875 C-44.635 119.5175 -43.645 119.8475 -42.625 120.1875 C-42.955 118.8675 -43.285 117.5475 -43.625 116.1875 C-44.285 116.1875 -44.945 116.1875 -45.625 116.1875 Z M-41.625 124.1875 C-42.9991663 125.35343462 -42.9991663 125.35343462 -43 128.5625 C-43.01537002 132.26924612 -43.01537002 132.26924612 -40.4375 134.25 C-37.63681462 135.47892728 -37.63681462 135.47892728 -34.8125 134.375 C-34.090625 133.983125 -33.36875 133.59125 -32.625 133.1875 C-32.20629447 130.85678121 -32.20629447 130.85678121 -32.625 128.1875 C-34.79166667 125.77083333 -34.79166667 125.77083333 -37.625 124.1875 C-38.945 124.1875 -40.265 124.1875 -41.625 124.1875 Z M-52.625 125.1875 C-52.955 125.8475 -53.285 126.5075 -53.625 127.1875 C-52.635 128.6725 -52.635 128.6725 -51.625 130.1875 C-50.305 130.1875 -48.985 130.1875 -47.625 130.1875 C-47.955 128.5375 -48.285 126.8875 -48.625 125.1875 C-49.945 125.1875 -51.265 125.1875 -52.625 125.1875 Z M-56.625 133.1875 C-56.955 133.8475 -57.285 134.5075 -57.625 135.1875 C-57.295 135.8475 -56.965 136.5075 -56.625 137.1875 C-55.635 137.1875 -54.645 137.1875 -53.625 137.1875 C-53.625 136.1975 -53.625 135.2075 -53.625 134.1875 C-54.615 133.8575 -55.605 133.5275 -56.625 133.1875 Z M-49.625 140.1875 C-51.71565618 143.58481629 -52.04598999 146.23019405 -51.625 150.1875 C-50.56154948 152.16779682 -50.56154948 152.16779682 -48.625 153.1875 C-45.78003228 153.61424516 -44.26147631 153.54816991 -41.75 152.125 C-39.92476777 148.98154449 -40.77153885 146.60134459 -41.625 143.1875 C-42.73149669 141.16271537 -42.73149669 141.16271537 -44.625 140.1875 C-47.25070704 139.93680087 -47.25070704 139.93680087 -49.625 140.1875 Z M-62.625 141.1875 C-62.955 142.1775 -63.285 143.1675 -63.625 144.1875 C-62.305 145.5075 -60.985 146.8275 -59.625 148.1875 C-58.635 147.8575 -57.645 147.5275 -56.625 147.1875 C-56.955 145.5375 -57.285 143.8875 -57.625 142.1875 C-59.275 141.8575 -60.925 141.5275 -62.625 141.1875 Z M-74.625 148.1875 C-75.31659401 150.03475052 -75.31659401 150.03475052 -75.625 152.1875 C-74.635 153.6725 -74.635 153.6725 -73.625 155.1875 C-71.04119823 155.43780977 -71.04119823 155.43780977 -68.625 155.1875 C-68.295 153.8675 -67.965 152.5475 -67.625 151.1875 C-70.68080974 148.59972792 -70.68080974 148.59972792 -74.625 148.1875 Z M-64.4375 155.3125 C-65.90899746 157.20103208 -65.90899746 157.20103208 -65.3125 159.875 C-65.085625 160.638125 -64.85875 161.40125 -64.625 162.1875 C-62.78799211 162.95992269 -62.78799211 162.95992269 -60.625 163.1875 C-58.68845052 162.16779682 -58.68845052 162.16779682 -57.625 160.1875 C-57.85543864 157.53283951 -57.85543864 157.53283951 -58.625 155.1875 C-61.61514998 154.04482642 -61.61514998 154.04482642 -64.4375 155.3125 Z M-84.625 163.1875 C-84.625 164.1775 -84.625 165.1675 -84.625 166.1875 C-83.305 166.1875 -81.985 166.1875 -80.625 166.1875 C-80.625 165.5275 -80.625 164.8675 -80.625 164.1875 C-81.945 163.8575 -83.265 163.5275 -84.625 163.1875 Z M-75.625 163.1875 C-75.295 164.1775 -74.965 165.1675 -74.625 166.1875 C-73.635 166.1875 -72.645 166.1875 -71.625 166.1875 C-71.955 165.1975 -72.285 164.2075 -72.625 163.1875 C-73.615 163.1875 -74.605 163.1875 -75.625 163.1875 Z M-71.625 171.1875 C-71.30458603 173.79030568 -71.30458603 173.79030568 -70.625 176.1875 C-68.20880177 176.43780977 -68.20880177 176.43780977 -65.625 176.1875 C-63.25519987 173.23372502 -63.25519987 173.23372502 -63.625 169.1875 C-68.11804582 168.76246554 -68.11804582 168.76246554 -71.625 171.1875 Z M-83.625 174.1875 C-83.955 175.1775 -84.285 176.1675 -84.625 177.1875 C-82.89644074 179.33317913 -82.89644074 179.33317913 -80.625 181.1875 C-78.40641747 181.05108623 -78.40641747 181.05108623 -76.625 180.1875 C-77.00404208 176.89674004 -77.00404208 176.89674004 -78.625 174.1875 C-80.29117115 174.14686168 -81.95888095 174.144779 -83.625 174.1875 Z M-73.625 185.1875 C-73.05047254 189.11825644 -73.05047254 189.11825644 -70.625 192.1875 C-68.04145782 192.35437448 -68.04145782 192.35437448 -65.625 192.1875 C-64.94541397 189.79030568 -64.94541397 189.79030568 -64.625 187.1875 C-66.58133975 184.77628141 -66.58133975 184.77628141 -70.25 185.0625 C-71.920625 185.124375 -71.920625 185.124375 -73.625 185.1875 Z M-85.625 186.1875 C-85.295 187.1775 -84.965 188.1675 -84.625 189.1875 C-83.635 189.1875 -82.645 189.1875 -81.625 189.1875 C-81.625 188.1975 -81.625 187.2075 -81.625 186.1875 C-82.945 186.1875 -84.265 186.1875 -85.625 186.1875 Z M-83.625 195.1875 C-83.625 196.5075 -83.625 197.8275 -83.625 199.1875 C-82.965 199.8475 -82.305 200.5075 -81.625 201.1875 C-79.51679203 200.8689823 -79.51679203 200.8689823 -77.625 200.1875 C-77.625 198.8675 -77.625 197.5475 -77.625 196.1875 C-80.595 195.6925 -80.595 195.6925 -83.625 195.1875 Z M-69.625 200.1875 C-70.39456136 202.53283951 -70.39456136 202.53283951 -70.625 205.1875 C-69.625 207.1875 -69.625 207.1875 -67.625 208.1875 C-64.97033951 207.95706136 -64.97033951 207.95706136 -62.625 207.1875 C-62.625 205.5375 -62.625 203.8875 -62.625 202.1875 C-65.27238916 200.7268715 -66.51948334 200.1875 -69.625 200.1875 Z M-125.625 210.1875 C-126.615 211.6725 -126.615 211.6725 -127.625 213.1875 C-127.295 213.8475 -126.965 214.5075 -126.625 215.1875 C-124.645 215.1875 -122.665 215.1875 -120.625 215.1875 C-120.955 213.8675 -121.285 212.5475 -121.625 211.1875 C-122.945 210.8575 -124.265 210.5275 -125.625 210.1875 Z M-114.625 210.1875 C-115.89503323 211.24060277 -115.89503323 211.24060277 -115.8125 213.625 C-115.89339983 216.35484675 -115.89339983 216.35484675 -113.625 218.1875 C-111.04145782 218.35437448 -111.04145782 218.35437448 -108.625 218.1875 C-108.295 216.5375 -107.965 214.8875 -107.625 213.1875 C-110.87897508 210.92864676 -110.87897508 210.92864676 -114.625 210.1875 Z M67.375 212.1875 C68.375 214.1875 68.375 214.1875 68.375 214.1875 Z M-106.625 220.1875 C-110.02390009 224.04571091 -111.57407482 227.74538206 -111.8984375 232.82421875 C-111.23226926 238.58181567 -107.6505918 242.49720241 -103.3359375 246.09765625 C-94.06588156 252.46906932 -83.21333216 255.69088798 -72.625 259.1875 C-81.02702508 258.77660839 -89.01089944 257.6611044 -97.21484375 255.90625 C-106.82163121 253.88145173 -117.85317251 251.7750958 -126.625 257.1875 C-130.00545858 260.74587745 -131.48033497 263.37918715 -131.875 268.3125 C-131.29736313 277.26587148 -127.75614706 283.70456581 -121.625 290.1875 C-114.49933687 296.32024286 -107.88129618 296.79186908 -98.82324219 296.38427734 C-89.92340363 295.58760144 -81.17546154 292.65911779 -72.625 290.1875 C-78.81231954 293.3706869 -84.98956352 296.51561967 -91.38671875 299.2578125 C-92.18416504 299.60070312 -92.98161133 299.94359375 -93.80322266 300.296875 C-95.36228343 300.96098444 -96.92565871 301.61507787 -98.49365234 302.2578125 C-103.08745475 304.21739939 -106.4717727 306.15701296 -109.625 310.1875 C-110.85966113 315.02645138 -110.11106188 319.19737394 -107.9375 323.625 C-104.40384072 327.5406765 -102.3117059 329.09050094 -96.95703125 329.3984375 C-92.53482041 329.32314447 -88.72959675 328.36128596 -84.5625 326.9375 C-83.80445068 326.68154053 -83.04640137 326.42558105 -82.26538086 326.16186523 C-65.43382381 320.14201682 -49.99872894 310.53509445 -35.2578125 300.57421875 C-23.60862012 292.71820151 -11.95637502 286.01344531 0.87939453 280.30615234 C5.01142977 278.45397219 9.09616832 276.50248249 13.1875 274.5625 C14.58951854 273.90295409 15.99182701 273.24402383 17.39453125 272.5859375 C18.37808594 272.12445313 19.36164063 271.66296875 20.375 271.1875 C17.46372844 269.96132405 16.32051016 270.20637242 13.2734375 271.26171875 C12.11070312 271.79410156 10.94796875 272.32648438 9.75 272.875 C8.48095286 273.44638892 7.2114197 274.01669962 5.94140625 274.5859375 C4.76449219 275.11445313 3.58757812 275.64296875 2.375 276.1875 C0.81687892 276.80287168 -0.74517856 277.40845363 -2.3125 278 C-10.61055847 281.26045131 -18.59506326 285.32462313 -26.625 289.1875 C-19.54789083 284.03624133 -12.24352128 279.49418986 -4.625 275.1875 C-8.1620633 273.93422595 -10.12132507 274.44510366 -13.58203125 275.76953125 C-14.53013672 276.12466797 -15.47824219 276.47980469 -16.45507812 276.84570312 C-17.43927734 277.22662109 -18.42347656 277.60753906 -19.4375 278 C-21.38068005 278.73786757 -23.3246743 279.47359501 -25.26953125 280.20703125 C-26.6455249 280.72644287 -26.6455249 280.72644287 -28.04931641 281.25634766 C-31.20988842 282.39894686 -34.37637887 283.33116891 -37.625 284.1875 C-36.91891602 283.80940186 -36.21283203 283.43130371 -35.48535156 283.04174805 C-32.28006446 281.32289834 -29.07751514 279.59900843 -25.875 277.875 C-24.76382813 277.28009766 -23.65265625 276.68519531 -22.5078125 276.07226562 C-21.43789062 275.49541016 -20.36796875 274.91855469 -19.265625 274.32421875 C-18.28110352 273.79530029 -17.29658203 273.26638184 -16.28222656 272.72143555 C-13.31237935 271.07769646 -13.31237935 271.07769646 -9.625 268.1875 C-21.835 268.8475 -34.045 269.5075 -46.625 270.1875 C-42.685625 269.23875 -38.74625 268.29 -34.6875 267.3125 C-33.46426025 267.01746582 -32.24102051 266.72243164 -30.98071289 266.41845703 C-24.87377865 264.95033438 -18.76124206 263.52797281 -12.625 262.1875 C-16.22830098 260.02075734 -19.65719799 259.62616418 -23.796875 259.1171875 C-24.8205014 258.98825607 -24.8205014 258.98825607 -25.86480713 258.85671997 C-28.03408063 258.5850871 -30.20444324 258.32365939 -32.375 258.0625 C-33.85034403 257.87957936 -35.32560567 257.69599296 -36.80078125 257.51171875 C-40.40793203 257.06259727 -44.01612995 256.62261648 -47.625 256.1875 C-46.6462793 256.2282666 -45.66755859 256.2690332 -44.65917969 256.31103516 C-41.02169128 256.45970835 -37.38379309 256.59426814 -33.74560547 256.72460938 C-32.17221619 256.78294307 -30.59896318 256.84508355 -29.02587891 256.91113281 C-26.76229671 257.00550832 -24.49857465 257.08610024 -22.234375 257.1640625 C-21.53318542 257.19625885 -20.83199585 257.2284552 -20.10955811 257.2616272 C-16.06301078 257.38523159 -14.38039335 257.06519667 -10.625 255.1875 C-17.885 252.8775 -25.145 250.5675 -32.625 248.1875 C-22.7434371 250.31583662 -13.07944868 252.48744481 -3.4453125 255.55078125 C-0.56624535 256.20076455 0.63005275 255.99996029 3.375 255.1875 C-21.92304135 243.56610782 -47.50357912 233.18562029 -73.8125 224.0625 C-74.63595917 223.77415283 -75.45941833 223.48580566 -76.30783081 223.1887207 C-78.67444457 222.36280986 -81.04529 221.55048669 -83.41796875 220.7421875 C-84.11380066 220.49794037 -84.80963257 220.25369324 -85.52655029 220.00204468 C-92.71918719 217.58812188 -100.05155592 215.44850543 -106.625 220.1875 Z M70.375 217.1875 C70.045 218.5075 69.715 219.8275 69.375 221.1875 C70.035 219.8675 70.695 218.5475 71.375 217.1875 C71.045 217.1875 70.715 217.1875 70.375 217.1875 Z M-137.625 218.1875 C-137.625 219.1775 -137.625 220.1675 -137.625 221.1875 C-136.965 221.5175 -136.305 221.8475 -135.625 222.1875 C-134.965 221.5275 -134.305 220.8675 -133.625 220.1875 C-133.955 219.5275 -134.285 218.8675 -134.625 218.1875 C-135.615 218.1875 -136.605 218.1875 -137.625 218.1875 Z M87.375 219.1875 C88.375 221.1875 88.375 221.1875 88.375 221.1875 Z M-127.625 224.1875 C-128.04280879 226.56055578 -128.04280879 226.56055578 -127.625 229.1875 C-125.51799553 231.28512034 -125.51799553 231.28512034 -122.625 232.1875 C-119.84276622 231.49264736 -119.84276622 231.49264736 -117.625 230.1875 C-117.582279 228.52138095 -117.58436168 226.85367115 -117.625 225.1875 C-118.63336062 223.95482652 -118.63336062 223.95482652 -120.69140625 224.08984375 C-121.92697266 224.10724609 -121.92697266 224.10724609 -123.1875 224.125 C-124.42693359 224.13853516 -124.42693359 224.13853516 -125.69140625 224.15234375 C-126.64853516 224.16974609 -126.64853516 224.16974609 -127.625 224.1875 Z M-136.625 231.1875 C-137.615 232.1775 -138.605 233.1675 -139.625 234.1875 C-138.39690909 235.83305699 -138.39690909 235.83305699 -136.625 237.1875 C-134.46200789 236.95992269 -134.46200789 236.95992269 -132.625 236.1875 C-132.89176204 234.20258358 -132.89176204 234.20258358 -133.625 232.1875 C-134.615 231.8575 -135.605 231.5275 -136.625 231.1875 Z M-130.625 242.1875 C-130.27713292 244.16286745 -130.27713292 244.16286745 -129.625 246.1875 C-126.63905576 247.68047212 -123.91646376 247.30505228 -120.625 247.1875 C-119.965 246.8575 -119.305 246.5275 -118.625 246.1875 C-117.78201426 243.80665122 -117.78201426 243.80665122 -117.625 241.1875 C-118.285 240.1975 -118.945 239.2075 -119.625 238.1875 C-124.7069982 237.39696695 -126.9581795 238.73637483 -130.625 242.1875 Z M33.375 240.1875 C34.375 242.1875 34.375 242.1875 34.375 242.1875 Z M47.375 249.1875 C48.375 251.1875 48.375 251.1875 48.375 251.1875 Z M-147.0625 261.375 C-148.94876195 264.23404078 -148.94876195 264.23404078 -148.625 268.1875 C-143.82561268 269.27527852 -143.82561268 269.27527852 -139.1875 268.125 C-137.02907297 265.44855048 -137.32802234 263.52849864 -137.625 260.1875 C-142.77382398 258.73747346 -142.77382398 258.73747346 -147.0625 261.375 Z M-157.625 261.1875 C-157.625 262.1775 -157.625 263.1675 -157.625 264.1875 C-156.305 264.1875 -154.985 264.1875 -153.625 264.1875 C-153.955 263.1975 -154.285 262.2075 -154.625 261.1875 C-155.615 261.1875 -156.605 261.1875 -157.625 261.1875 Z M-169.625 272.1875 C-169.295 273.8375 -168.965 275.4875 -168.625 277.1875 C-167.635 277.1875 -166.645 277.1875 -165.625 277.1875 C-165.625 275.5375 -165.625 273.8875 -165.625 272.1875 C-166.945 272.1875 -168.265 272.1875 -169.625 272.1875 Z M-156.625 272.1875 C-157.285 272.8475 -157.945 273.5075 -158.625 274.1875 C-158.30173447 277.78429066 -158.30173447 277.78429066 -157.625 281.1875 C-155.62545254 281.23004356 -153.62458364 281.22830783 -151.625 281.1875 C-151.295 280.8575 -150.965 280.5275 -150.625 280.1875 C-150.91230055 277.84805264 -151.24436779 275.5135857 -151.625 273.1875 C-154.02219432 272.50791397 -154.02219432 272.50791397 -156.625 272.1875 Z M-143.625 280.1875 C-143.95843551 282.72957971 -143.95843551 282.72957971 -143.625 285.1875 C-142.51333136 286.51937793 -142.51333136 286.51937793 -139.6875 286.375 C-136.51607141 286.52028733 -136.51607141 286.52028733 -134.625 284.1875 C-134.99181658 281.25296739 -135.48937246 280.32312754 -137.625 278.1875 C-140.80990007 277.9101499 -140.80990007 277.9101499 -143.625 280.1875 Z M-165.625 287.1875 C-165.295 288.5075 -164.965 289.8275 -164.625 291.1875 C-163.635 290.8575 -162.645 290.5275 -161.625 290.1875 C-161.625 289.1975 -161.625 288.2075 -161.625 287.1875 C-162.945 287.1875 -164.265 287.1875 -165.625 287.1875 Z M-152.625 294.1875 C-153.04166667 297.1875 -153.04166667 297.1875 -152.625 300.1875 C-151.965 300.8475 -151.305 301.5075 -150.625 302.1875 C-147.31816534 301.89766731 -147.31816534 301.89766731 -144.625 300.1875 C-144.31686422 297.26021007 -144.18925165 295.76189555 -146 293.375 C-148.90162706 291.25458022 -149.62054944 292.18453296 -152.625 294.1875 Z M-132.875 296.1875 C-133.4525 296.8475 -134.03 297.5075 -134.625 298.1875 C-133.37523244 301.84066671 -132.95401247 302.96815836 -129.625 305.1875 C-126.49978167 305.35449232 -126.49978167 305.35449232 -123.625 305.1875 C-121.74956646 301.31986554 -121.74956646 301.31986554 -122.625 297.1875 C-126.09183155 293.95976028 -128.97731367 292.72288993 -132.875 296.1875 Z M-137.625 307.1875 C-138.285 308.5075 -138.945 309.8275 -139.625 311.1875 C-138.49965895 312.54368499 -138.49965895 312.54368499 -135.5625 312.25 C-134.593125 312.229375 -133.62375 312.20875 -132.625 312.1875 C-132.625 310.8675 -132.625 309.5475 -132.625 308.1875 C-134.275 307.8575 -135.925 307.5275 -137.625 307.1875 Z M-122.625 311.1875 C-122.625 312.5075 -122.625 313.8275 -122.625 315.1875 C-120.645 315.6825 -120.645 315.6825 -118.625 316.1875 C-118.955 314.5375 -119.285 312.8875 -119.625 311.1875 C-120.615 311.1875 -121.605 311.1875 -122.625 311.1875 Z M-126.625 320.1875 C-126.625 321.1775 -126.625 322.1675 -126.625 323.1875 C-125.635 323.1875 -124.645 323.1875 -123.625 323.1875 C-123.955 322.1975 -124.285 321.2075 -124.625 320.1875 C-125.285 320.1875 -125.945 320.1875 -126.625 320.1875 Z M-115.625 324.1875 C-117.97473818 326.08505144 -117.97473818 326.08505144 -117.75 329.3125 C-117.70875 330.26125 -117.6675 331.21 -117.625 332.1875 C-115.15 332.6825 -115.15 332.6825 -112.625 333.1875 C-110.29108797 330.40635944 -110.29108797 330.40635944 -111 327.5 C-111.20625 326.736875 -111.4125 325.97375 -111.625 325.1875 C-113.51679203 324.5060177 -113.51679203 324.5060177 -115.625 324.1875 Z M-128.625 331.1875 C-128.955 332.1775 -129.285 333.1675 -129.625 334.1875 C-128.59598426 336.4765789 -128.59598426 336.4765789 -126.625 338.1875 C-123.99874861 338.52175735 -123.99874861 338.52175735 -121.625 338.1875 C-120.85257731 336.35049211 -120.85257731 336.35049211 -120.625 334.1875 C-121.66459519 332.31390605 -121.66459519 332.31390605 -123.625 331.1875 C-126.25070704 330.93680087 -126.25070704 330.93680087 -128.625 331.1875 Z M-102.625 334.1875 C-102.955 335.5075 -103.285 336.8275 -103.625 338.1875 C-101.15 338.6825 -101.15 338.6825 -98.625 339.1875 C-98.295 337.8675 -97.965 336.5475 -97.625 335.1875 C-99.275 334.8575 -100.925 334.5275 -102.625 334.1875 Z M-116.625 340.1875 C-116.295 341.5075 -115.965 342.8275 -115.625 344.1875 C-113.975 344.1875 -112.325 344.1875 -110.625 344.1875 C-110.625 342.8675 -110.625 341.5475 -110.625 340.1875 C-112.605 340.1875 -114.585 340.1875 -116.625 340.1875 Z " fill="#000000" transform="translate(181.625,5.8125)"/>
<path d="" fill="#000000" transform="translate(0,0)"/>
<path d="" fill="#000000" transform="translate(0,0)"/>
</svg>
